<svg enable-background="new 0 0 512 512" viewBox="0 0 512 512" xmlns="http://www.w3.org/2000/svg"><path d="m506.188 236.413-208.39-209.763c-.267-.27-.544-.532-.826-.786-22.755-20.431-57.14-20.504-79.982-.169-.284.253-.56.514-.829.782l-210.289 209.875c-7.818 7.804-7.831 20.467-.028 28.285 7.804 7.818 20.467 7.83 28.284.028l15.872-15.841v172.684c0 44.112 35.888 80 80 80h72c11.046 0 20-8.954 20-20v-163h70v163c0 11.046 8.954 20 20 20h70c44.112 0 80-35.888 80-80 0-11.046-8.954-20-20-20s-20 8.954-20 20c0 22.056-17.944 40-40 40h-50v-163c0-11.046-8.954-20-20-20h-110c-11.046 0-20 8.954-20 20v163h-52c-22.056 0-40-17.944-40-40v-212c0-.2-.003-.399-.009-.597l153.955-153.651c7.493-6.363 18.483-6.339 25.947.055l152.107 153.11v113.083c0 11.046 8.954 20 20 20s20-8.954 20-20v-72.82l15.812 15.917c3.909 3.935 9.047 5.904 14.188 5.904 5.097 0 10.195-1.937 14.096-5.812 7.836-7.785 7.878-20.448.092-28.284z"/></svg>