<svg id="Layer_1_copy_3" height="512" viewBox="0 0 64 64" width="512" xmlns="http://www.w3.org/2000/svg" data-name="Layer 1 copy 3"><path d="m5.09 30.562-4.09-20.52 55.265-9.042 2.231 13.332z" fill="#fbe41a"/><path d="m5.275 28.725-.12-15.725 55.983 1.398-1.032 11.152z" fill="#91b472"/><path d="m1 52.273 6.571-34.883 55.429 8.61-7.142 37.125z" fill="#6a951f"/><ellipse cx="13.63" cy="34.81" fill="#fbe41a" rx="4.249" ry="4.226" transform="matrix(.175 -.985 .985 .175 -23.025 42.157)"/><ellipse cx="51.63" cy="42.81" fill="#fbe41a" rx="4.249" ry="4.226" transform="matrix(.175 -.985 .985 .175 .467 86.178)"/><ellipse cx="32.078" cy="40.001" fill="#fcc325" rx="11.154" ry="11.094" transform="matrix(.175 -.985 .985 .175 -12.908 64.606)"/><g opacity=".2"><path d="m58.131 51.307 4.869-25.307-55.429-8.61-2.2 11.7c9.369 6.392 32.275 20.587 52.76 22.217z" fill="#fff"/></g><g fill="#043c49"><path d="m31.726 47.015a3.015 3.015 0 0 1 -1.061-.192l-1.708-.639a3.04 3.04 0 0 1 -1.782-3.914l.368-.983a1 1 0 1 1 1.873.7l-.368.983a1.041 1.041 0 0 0 .61 1.34l1.707.639a1.043 1.043 0 0 0 1.34-.61l.271-.724a1.04 1.04 0 0 0 -.111-.944l-2.97-3.9a3.04 3.04 0 0 1 3.554-4.593l1.709.64a3.039 3.039 0 0 1 1.781 3.913l-.1.257a1 1 0 1 1 -1.875-.7l.1-.261a1.039 1.039 0 0 0 -.608-1.341l-1.709-.64a1.04 1.04 0 0 0 -1.228 1.555l2.97 3.9a3.064 3.064 0 0 1 .359 2.81l-.271.725a3.048 3.048 0 0 1 -2.851 1.979z"/><path d="m33.931 36.329a1 1 0 0 1 -.937-1.351l.7-1.873a1 1 0 0 1 1.873.7l-.7 1.873a1 1 0 0 1 -.936.651z"/><path d="m29.375 48.5a1 1 0 0 1 -.937-1.351l.7-1.873a1 1 0 1 1 1.873.7l-.7 1.873a1 1 0 0 1 -.936.651z"/><path d="m13.634 40.06a5.237 5.237 0 0 1 -.92-.081 5.192 5.192 0 1 1 .92.081zm0-8.5a3.19 3.19 0 0 0 -1.844.588 3.264 3.264 0 0 0 -.8 4.527 3.207 3.207 0 0 0 4.487.795 3.234 3.234 0 0 0 1.334-2.1 3.239 3.239 0 0 0 -.531-2.429 3.193 3.193 0 0 0 -2.08-1.33 3.262 3.262 0 0 0 -.568-.049z"/><path d="m51.634 48.06a5.237 5.237 0 0 1 -.92-.081 5.192 5.192 0 1 1 .92.081zm0-8.5a3.19 3.19 0 0 0 -1.844.588 3.264 3.264 0 0 0 -.8 4.527 3.207 3.207 0 0 0 4.487.795 3.234 3.234 0 0 0 1.334-2.1 3.239 3.239 0 0 0 -.531-2.429 3.193 3.193 0 0 0 -2.08-1.33 3.262 3.262 0 0 0 -.568-.049z"/><path d="m55.858 64.125a1.034 1.034 0 0 1 -.188-.018l-43.857-8.39a1 1 0 0 1 .375-1.965l42.877 8.2 6.758-35.126-53.447-8.3-6.219 33.007 5.935 1.5a1 1 0 1 1 -.492 1.937l-6.844-1.728a1 1 0 0 1 -.738-1.155l6.571-34.887a1 1 0 0 1 1.136-.8l55.429 8.61a1 1 0 0 1 .829 1.177l-7.143 37.126a1 1 0 0 1 -.982.812z"/><path d="m5.089 31.562a1 1 0 0 1 -.979-.8l-4.09-20.525a1 1 0 0 1 .819-1.182l55.261-9.042a1 1 0 0 1 1.147.822l2.23 13.332a1 1 0 0 1 -1.973.33l-2.061-12.35-53.26 8.714 3.888 19.5a1 1 0 0 1 -.785 1.176.963.963 0 0 1 -.197.025z"/><path d="m60.106 26.551c-.03 0-.062 0-.093 0a1 1 0 0 1 -.9-1.088l.934-10.089-14.864-.374a1 1 0 0 1 -.975-1.025.986.986 0 0 1 1.025-.975l15.93.4a1 1 0 0 1 .971 1.092l-1.034 11.151a1 1 0 0 1 -.994.908z"/><path d="m5.275 29.725a1 1 0 0 1 -1-.992l-.12-15.725a1 1 0 0 1 .3-.721 1.054 1.054 0 0 1 .726-.287l34.845.87a1 1 0 0 1 -.025 2h-.025l-33.813-.845.112 14.691a1 1 0 0 1 -.992 1.008z"/><path d="m32.062 52.155a12.008 12.008 0 0 1 -2.106-.187 12.154 12.154 0 1 1 14.029-9.856 12.158 12.158 0 0 1 -11.923 10.043zm.031-22.307a10.091 10.091 0 1 0 1.757.152 10.154 10.154 0 0 0 -1.756-.151z"/></g></svg>