<?xml version="1.0" encoding="utf-8"?>
<!-- Generator: Adobe Illustrator 24.1.0, SVG Export Plug-In . SVG Version: 6.00 Build 0)  -->
<svg version="1.1" id="Layer_1" xmlns="http://www.w3.org/2000/svg" xmlns:xlink="http://www.w3.org/1999/xlink" x="0px" y="0px"
	 viewBox="0 0 127.1 139.4" style="enable-background:new 0 0 127.1 139.4;" xml:space="preserve">
<style type="text/css">
	.st0{fill:#2B47C8;}
</style>
<g id="themesei-logo" transform="translate(-908.097 -118)">
	<g id="Grupo_94" transform="translate(949.097 337)">
		<g id="logo">
			<path id="Path_1" class="st0" d="M-21-105.2c-5.8,4.2-12,8.1-18.1,12l-1.9,1.1l12.5,12.5l1.1-0.6c5.8-3.6,12.2-7.8,18.4-12
				l1.7-1.1l-12.2-12.2L-21-105.2z M-28.2-84.3l-7.2-7.2l22.5-2.8C-18.2-90.7-23.2-87.4-28.2-84.3z"/>
			<path id="Path_2" class="st0" d="M-19.6-109.1l16.7,16.7l6.1-6.1l-16.7-16.7L-19.6-109.1z M-2.9-97.7l-11.7-11.7l1.1-1.1
				l11.7,11.7L-2.9-97.7z"/>
			<path id="Path_3" class="st0" d="M86.1-190.3c-0.3-7.5-0.8-15.6-1.4-23.1l-0.3-5.6l-2.8,4.7c-11.7,18.9-25,36.8-39.8,53.4
				C27-144.3,10.7-129.1-6.9-115.5l-1.7,1.1l12.2,12.2l1.1-0.8c15.6-12.1,30.4-25.4,44-39.8c13.6-14.5,25.9-30,37-46.5l0.3-0.6
				L86.1-190.3z M46.1-145.3C33-131.4,18.9-118.6,3.8-106.9l-7.2-7.2c17.2-13.4,33.1-28.3,47.6-44.5c13.9-15.3,26.5-31.8,37.6-49.2
				c0.3,5.6,0.6,11.4,0.8,17C71.6-174.7,59.4-159.5,46.1-145.3z"/>
			<path id="Path_4" class="st0" d="M18.1-165.8h19.8c4.7-5.6,9.5-11.1,13.9-17H2.1c-0.5,0-1,0.4-1,0.9c0,0,0,0.1,0,0.1v52.2
				c3.6-3.1,14.8-13.4,17-15.3V-165.8z"/>
			<path id="Path_5" class="st0" d="M59.1-143.8v19H40.9c-3.6,3.6-7.2,7-10.9,10.3l-7.5,6.7H75c0.5,0,1-0.4,1-0.9c0,0,0-0.1,0-0.1
				v-55.6c-1.7,2.2-3.1,4.2-4.7,6.1C67.4-153.5,63.2-148.5,59.1-143.8z"/>
		</g>
	</g>
</g>
</svg>
