<svg enable-background="new 0 0 121 213.4" viewBox="0 0 121 213.4" xmlns="http://www.w3.org/2000/svg" xmlns:xlink="http://www.w3.org/1999/xlink"><linearGradient id="a" gradientTransform="matrix(1 0 0 -1 0 216)" gradientUnits="userSpaceOnUse" x1="60.5" x2="60.5" y1="5.8" y2="143.9"><stop offset="0" stop-color="#ff5c2a"/><stop offset="1" stop-color="#fe0048"/></linearGradient><path d="m60.5 72.1c-30.3 0-54.8 27.1-54.8 60.4s39.6 77.7 54.8 77.7c12.5 0 54.8-44.4 54.8-77.7s-24.6-60.4-54.8-60.4zm0 84.9c-19.1 0-34.6-15.5-34.6-34.6s15.5-34.6 34.6-34.6 34.6 15.5 34.6 34.6-15.5 34.6-34.6 34.6z" fill="url(#a)"/><g fill="#fe0048"><path d="m60.5 2.3c4.9 0 8.8 4.1 8.5 9l-2.2 41.8c-.2 3.4-3 6-6.3 6-3.4 0-6.2-2.6-6.3-6l-2.2-41.8c-.3-4.9 3.6-9 8.5-9z"/><path d="m9.2 27.2c3.2-2.5 7.8-1.8 10.2 1.5l19.9 28.6c1.6 2.3 1.1 5.4-1.1 7.1-2.2 1.7-5.4 1.4-7.2-.7l-22.8-26.2c-2.7-3.1-2.2-7.8 1-10.3z"/><path d="m112.7 37.5-22.7 26.3c-1.8 2.1-5 2.4-7.2.7-2.2-1.7-2.7-4.9-1.1-7.1l19.9-28.6c2.3-3.3 7-4 10.2-1.5 3.1 2.4 3.6 7.1.9 10.2z"/></g></svg>