<?xml version="1.0" encoding="utf-8"?>
<!-- Generator: Adobe Illustrator 21.1.0, SVG Export Plug-In . SVG Version: 6.00 Build 0)  -->
<svg version="1.1" id="Layer_1" xmlns="http://www.w3.org/2000/svg" xmlns:xlink="http://www.w3.org/1999/xlink" x="0px" y="0px"
	 viewBox="0 0 272 136" style="enable-background:new 0 0 272 136;" xml:space="preserve">
<style type="text/css">
	.st0{fill:#FFFFFF;}
	.st1{fill:none;stroke:#FFFFFF;stroke-width:8;stroke-linejoin:round;stroke-miterlimit:10;}
</style>
<g>
	<path class="st0" d="M101.5,102.9H85.9L85,75c-0.3-8.2-0.4-14.2-0.4-18.1c0-4.8,0.1-8.3,0.2-10.5l-9.3,49.1H60.2l-9.8-49.1
		c0.3,5.2,0.4,10.6,0.4,16.4c0,2.6-0.1,6.7-0.2,12.4l-0.9,27.6H34.2l4.7-70.7h20.4l8.9,48.1l8.2-48.1h20.5L101.5,102.9z"/>
	<path class="st0" d="M157.2,39.9c5,6.3,7.5,15.5,7.5,27.6c0,12-2.5,21.1-7.6,27.5c-5.1,6.4-12.2,9.6-21.5,9.6
		c-9.2,0-16.4-3.2-21.5-9.5c-5.1-6.3-7.6-15.5-7.6-27.6c0-11.9,2.5-21,7.6-27.4c5.1-6.4,12.2-9.6,21.5-9.6
		C145,30.5,152.1,33.6,157.2,39.9z M126.5,48.2c-1.9,3.9-2.9,10.3-2.9,19.3c0,9.1,1,15.6,3,19.4c2,3.8,5,5.8,9.1,5.8
		c4.1,0,7.2-1.9,9.1-5.8c1.9-3.8,2.9-10.3,2.9-19.4c0-9-1-15.4-2.9-19.3s-5-5.8-9.1-5.8C131.5,42.4,128.5,44.4,126.5,48.2z"/>
	<path class="st0" d="M237.2,102.9h-15.6L220.7,75c-0.3-8.2-0.4-14.2-0.4-18.1c0-4.8,0.1-8.3,0.2-10.5l-9.3,49.1h-15.3l-9.8-49.1
		c0.3,5.2,0.4,10.6,0.4,16.4c0,2.6-0.1,6.7-0.2,12.4l-0.9,27.6h-15.5l4.7-70.7H195l8.9,48.1l8.2-48.1h20.5L237.2,102.9z"/>
</g>
<rect x="5" y="4" class="st1" width="263" height="127"/>
</svg>
