<svg enable-background="new 0 0 512 512" viewBox="0 0 512 512" xmlns="http://www.w3.org/2000/svg"><path d="m352.459 220c0-11.046-8.954-20-20-20h-206c-11.046 0-20 8.954-20 20s8.954 20 20 20h206c11.046 0 20-8.954 20-20z"/><path d="m126.459 280c-11.046 0-20 8.954-20 20s8.954 20 20 20h125.111c11.046 0 20-8.954 20-20s-8.954-20-20-20z"/><path d="m173.459 472h-66.889c-22.056 0-40-17.944-40-40v-352c0-22.056 17.944-40 40-40h245.889c22.056 0 40 17.944 40 40v123c0 11.046 8.954 20 20 20s20-8.954 20-20v-123c0-44.112-35.888-80-80-80h-245.889c-44.112 0-80 35.888-80 80v352c0 44.112 35.888 80 80 80h66.889c11.046 0 20-8.954 20-20s-8.954-20-20-20z"/><path d="m467.884 289.572c-23.394-23.394-61.458-23.395-84.837-.016l-109.803 109.56c-2.332 2.327-4.052 5.193-5.01 8.345l-23.913 78.725c-2.12 6.98-.273 14.559 4.821 19.78 3.816 3.911 9 6.034 14.317 6.034 1.779 0 3.575-.238 5.338-.727l80.725-22.361c3.322-.92 6.35-2.683 8.79-5.119l109.573-109.367c23.394-23.394 23.394-61.458-.001-84.854zm-134.108 162.196-40.612 11.25 11.885-39.129 74.089-73.925 28.29 28.29zm105.839-105.638-3.875 3.867-28.285-28.285 3.862-3.854c7.798-7.798 20.486-7.798 28.284 0s7.798 20.486.014 28.272z"/><path d="m332.459 120h-206c-11.046 0-20 8.954-20 20s8.954 20 20 20h206c11.046 0 20-8.954 20-20s-8.954-20-20-20z"/></svg>