<svg enable-background="new 0 0 512 512" viewBox="0 0 512 512" xmlns="http://www.w3.org/2000/svg"><path d="m432 0h-76c-44.112 0-80 35.888-80 80v76c0 44.112 35.888 80 80 80h76c44.112 0 80-35.888 80-80v-76c0-44.112-35.888-80-80-80zm40 156c0 22.056-17.944 40-40 40h-76c-22.056 0-40-17.944-40-40v-76c0-22.056 17.944-40 40-40h76c22.056 0 40 17.944 40 40z"/><path d="m156 0h-76c-44.112 0-80 35.888-80 80v76c0 44.112 35.888 80 80 80h76c44.112 0 80-35.888 80-80v-76c0-44.112-35.888-80-80-80zm40 156c0 22.056-17.944 40-40 40h-76c-22.056 0-40-17.944-40-40v-76c0-22.056 17.944-40 40-40h76c22.056 0 40 17.944 40 40z"/><path d="m156 276h-76c-44.112 0-80 35.888-80 80v76c0 44.112 35.888 80 80 80h76c44.112 0 80-35.888 80-80v-76c0-44.112-35.888-80-80-80zm40 156c0 22.056-17.944 40-40 40h-76c-22.056 0-40-17.944-40-40v-76c0-22.056 17.944-40 40-40h76c22.056 0 40 17.944 40 40z"/><path d="m492 412c-11.046 0-20 8.954-20 20 0 22.056-17.944 40-40 40h-76c-22.056 0-40-17.944-40-40v-76c0-22.056 17.944-40 40-40h76c15.905 0 30.301 9.419 36.675 23.996 4.425 10.121 16.218 14.736 26.338 10.312 10.121-4.426 14.737-16.218 10.312-26.338-12.743-29.141-41.525-47.97-73.325-47.97h-76c-44.112 0-80 35.888-80 80v76c0 44.112 35.888 80 80 80h76c44.112 0 80-35.888 80-80 0-11.046-8.954-20-20-20z"/></svg>